<mxfile host="app.diagrams.net" agent="Mozilla/5.0 (Windows NT 10.0; Win64; x64) AppleWebKit/537.36 (KHTML, like Gecko) Chrome/128.0.0.0 Safari/537.36" version="24.7.12">
  <diagram id="C5RBs43oDa-KdzZeNtuy" name="Page-1">
    <mxGraphModel dx="2736" dy="949" grid="1" gridSize="10" guides="1" tooltips="1" connect="1" arrows="0" fold="1" page="1" pageScale="1" pageWidth="827" pageHeight="1169" math="0" shadow="0">
      <root>
        <mxCell id="WIyWlLk6GJQsqaUBKTNV-0" />
        <mxCell id="WIyWlLk6GJQsqaUBKTNV-1" parent="WIyWlLk6GJQsqaUBKTNV-0" />
        <mxCell id="smnOxHgna7KKG46n1vhN-0" value="User" style="swimlane;fontStyle=1;align=center;verticalAlign=top;childLayout=stackLayout;horizontal=1;startSize=26;horizontalStack=0;resizeParent=1;resizeParentMax=0;resizeLast=0;collapsible=1;marginBottom=0;whiteSpace=wrap;html=1;" parent="WIyWlLk6GJQsqaUBKTNV-1" vertex="1">
          <mxGeometry x="131" y="220" width="286" height="140" as="geometry" />
        </mxCell>
        <mxCell id="smnOxHgna7KKG46n1vhN-2" value="" style="line;strokeWidth=1;fillColor=none;align=left;verticalAlign=middle;spacingTop=-1;spacingLeft=3;spacingRight=3;rotatable=0;labelPosition=right;points=[];portConstraint=eastwest;strokeColor=inherit;" parent="smnOxHgna7KKG46n1vhN-0" vertex="1">
          <mxGeometry y="26" width="286" height="114" as="geometry" />
        </mxCell>
        <mxCell id="smnOxHgna7KKG46n1vhN-55" style="edgeStyle=orthogonalEdgeStyle;rounded=0;orthogonalLoop=1;jettySize=auto;html=1;exitX=0.5;exitY=0;exitDx=0;exitDy=0;entryX=0.5;entryY=1;entryDx=0;entryDy=0;endArrow=block;endFill=0;endSize=12;" parent="WIyWlLk6GJQsqaUBKTNV-1" source="smnOxHgna7KKG46n1vhN-4" target="smnOxHgna7KKG46n1vhN-0" edge="1">
          <mxGeometry relative="1" as="geometry" />
        </mxCell>
        <mxCell id="smnOxHgna7KKG46n1vhN-4" value="Student" style="swimlane;fontStyle=1;align=center;verticalAlign=top;childLayout=stackLayout;horizontal=1;startSize=26;horizontalStack=0;resizeParent=1;resizeParentMax=0;resizeLast=0;collapsible=1;marginBottom=0;whiteSpace=wrap;html=1;" parent="WIyWlLk6GJQsqaUBKTNV-1" vertex="1">
          <mxGeometry x="-6" y="467" width="210" height="100" as="geometry" />
        </mxCell>
        <mxCell id="smnOxHgna7KKG46n1vhN-6" value="" style="line;strokeWidth=1;fillColor=none;align=left;verticalAlign=middle;spacingTop=-1;spacingLeft=3;spacingRight=3;rotatable=0;labelPosition=right;points=[];portConstraint=eastwest;strokeColor=inherit;" parent="smnOxHgna7KKG46n1vhN-4" vertex="1">
          <mxGeometry y="26" width="210" height="74" as="geometry" />
        </mxCell>
        <mxCell id="smnOxHgna7KKG46n1vhN-57" style="edgeStyle=orthogonalEdgeStyle;rounded=0;orthogonalLoop=1;jettySize=auto;html=1;exitX=0.5;exitY=0;exitDx=0;exitDy=0;endArrow=block;endFill=0;endSize=12;" parent="WIyWlLk6GJQsqaUBKTNV-1" source="smnOxHgna7KKG46n1vhN-8" target="smnOxHgna7KKG46n1vhN-0" edge="1">
          <mxGeometry relative="1" as="geometry" />
        </mxCell>
        <mxCell id="smnOxHgna7KKG46n1vhN-8" value="Administrator" style="swimlane;fontStyle=1;align=center;verticalAlign=top;childLayout=stackLayout;horizontal=1;startSize=26;horizontalStack=0;resizeParent=1;resizeParentMax=0;resizeLast=0;collapsible=1;marginBottom=0;whiteSpace=wrap;html=1;" parent="WIyWlLk6GJQsqaUBKTNV-1" vertex="1">
          <mxGeometry x="348" y="467" width="372" height="110" as="geometry">
            <mxRectangle x="348" y="467" width="110" height="30" as="alternateBounds" />
          </mxGeometry>
        </mxCell>
        <mxCell id="smnOxHgna7KKG46n1vhN-10" value="" style="line;strokeWidth=1;fillColor=none;align=left;verticalAlign=middle;spacingTop=-1;spacingLeft=3;spacingRight=3;rotatable=0;labelPosition=right;points=[];portConstraint=eastwest;strokeColor=inherit;" parent="smnOxHgna7KKG46n1vhN-8" vertex="1">
          <mxGeometry y="26" width="372" height="84" as="geometry" />
        </mxCell>
        <mxCell id="smnOxHgna7KKG46n1vhN-70" value="Message" style="swimlane;fontStyle=1;align=center;verticalAlign=top;childLayout=stackLayout;horizontal=1;startSize=26;horizontalStack=0;resizeParent=1;resizeParentMax=0;resizeLast=0;collapsible=1;marginBottom=0;whiteSpace=wrap;html=1;" parent="WIyWlLk6GJQsqaUBKTNV-1" vertex="1">
          <mxGeometry x="-200" y="887" width="174" height="100" as="geometry" />
        </mxCell>
        <mxCell id="smnOxHgna7KKG46n1vhN-72" value="" style="line;strokeWidth=1;fillColor=none;align=left;verticalAlign=middle;spacingTop=-1;spacingLeft=3;spacingRight=3;rotatable=0;labelPosition=right;points=[];portConstraint=eastwest;strokeColor=inherit;" parent="smnOxHgna7KKG46n1vhN-70" vertex="1">
          <mxGeometry y="26" width="174" height="74" as="geometry" />
        </mxCell>
        <mxCell id="smnOxHgna7KKG46n1vhN-75" value="Chat" style="swimlane;fontStyle=1;align=center;verticalAlign=top;childLayout=stackLayout;horizontal=1;startSize=26;horizontalStack=0;resizeParent=1;resizeParentMax=0;resizeLast=0;collapsible=1;marginBottom=0;whiteSpace=wrap;html=1;" parent="WIyWlLk6GJQsqaUBKTNV-1" vertex="1">
          <mxGeometry x="64" y="887" width="393" height="100" as="geometry" />
        </mxCell>
        <mxCell id="smnOxHgna7KKG46n1vhN-77" value="" style="line;strokeWidth=1;fillColor=none;align=left;verticalAlign=middle;spacingTop=-1;spacingLeft=3;spacingRight=3;rotatable=0;labelPosition=right;points=[];portConstraint=eastwest;strokeColor=inherit;" parent="smnOxHgna7KKG46n1vhN-75" vertex="1">
          <mxGeometry y="26" width="393" height="74" as="geometry" />
        </mxCell>
        <mxCell id="smnOxHgna7KKG46n1vhN-86" style="edgeStyle=orthogonalEdgeStyle;rounded=0;orthogonalLoop=1;jettySize=auto;html=1;endArrow=diamondThin;endFill=1;endSize=12;" parent="WIyWlLk6GJQsqaUBKTNV-1" source="smnOxHgna7KKG46n1vhN-70" target="smnOxHgna7KKG46n1vhN-75" edge="1">
          <mxGeometry relative="1" as="geometry">
            <mxPoint x="-26" y="897" as="targetPoint" />
          </mxGeometry>
        </mxCell>
        <mxCell id="smnOxHgna7KKG46n1vhN-90" value="Group" style="swimlane;fontStyle=1;align=center;verticalAlign=top;childLayout=stackLayout;horizontal=1;startSize=26;horizontalStack=0;resizeParent=1;resizeParentMax=0;resizeLast=0;collapsible=1;marginBottom=0;whiteSpace=wrap;html=1;" parent="WIyWlLk6GJQsqaUBKTNV-1" vertex="1">
          <mxGeometry x="-18.5" y="677" width="235" height="100" as="geometry" />
        </mxCell>
        <mxCell id="smnOxHgna7KKG46n1vhN-92" value="" style="line;strokeWidth=1;fillColor=none;align=left;verticalAlign=middle;spacingTop=-1;spacingLeft=3;spacingRight=3;rotatable=0;labelPosition=right;points=[];portConstraint=eastwest;strokeColor=inherit;" parent="smnOxHgna7KKG46n1vhN-90" vertex="1">
          <mxGeometry y="26" width="235" height="74" as="geometry" />
        </mxCell>
        <mxCell id="smnOxHgna7KKG46n1vhN-94" style="edgeStyle=orthogonalEdgeStyle;rounded=0;orthogonalLoop=1;jettySize=auto;html=1;endArrow=diamondThin;endFill=0;endSize=13;" parent="WIyWlLk6GJQsqaUBKTNV-1" source="smnOxHgna7KKG46n1vhN-4" target="smnOxHgna7KKG46n1vhN-90" edge="1">
          <mxGeometry relative="1" as="geometry" />
        </mxCell>
        <mxCell id="smnOxHgna7KKG46n1vhN-96" style="edgeStyle=orthogonalEdgeStyle;rounded=0;orthogonalLoop=1;jettySize=auto;html=1;endArrow=none;endFill=0;endSize=13;" parent="WIyWlLk6GJQsqaUBKTNV-1" source="smnOxHgna7KKG46n1vhN-4" target="smnOxHgna7KKG46n1vhN-75" edge="1">
          <mxGeometry relative="1" as="geometry">
            <Array as="points">
              <mxPoint x="254" y="537" />
            </Array>
          </mxGeometry>
        </mxCell>
        <mxCell id="smnOxHgna7KKG46n1vhN-101" value="1" style="edgeLabel;html=1;align=center;verticalAlign=middle;resizable=0;points=[];" parent="smnOxHgna7KKG46n1vhN-96" vertex="1" connectable="0">
          <mxGeometry x="-0.7834" y="1" relative="1" as="geometry">
            <mxPoint x="12" y="342" as="offset" />
          </mxGeometry>
        </mxCell>
        <mxCell id="smnOxHgna7KKG46n1vhN-102" value="0..*" style="edgeLabel;html=1;align=center;verticalAlign=middle;resizable=0;points=[];" parent="smnOxHgna7KKG46n1vhN-96" vertex="1" connectable="0">
          <mxGeometry x="-0.978" relative="1" as="geometry">
            <mxPoint x="6" y="-10" as="offset" />
          </mxGeometry>
        </mxCell>
        <mxCell id="smnOxHgna7KKG46n1vhN-97" style="edgeStyle=orthogonalEdgeStyle;rounded=0;orthogonalLoop=1;jettySize=auto;html=1;endArrow=none;endFill=0;endSize=12;" parent="WIyWlLk6GJQsqaUBKTNV-1" source="smnOxHgna7KKG46n1vhN-8" edge="1">
          <mxGeometry relative="1" as="geometry">
            <mxPoint x="371" y="536.9999999999998" as="sourcePoint" />
            <mxPoint x="274" y="887" as="targetPoint" />
            <Array as="points">
              <mxPoint x="294" y="537" />
              <mxPoint x="294" y="887" />
            </Array>
          </mxGeometry>
        </mxCell>
        <mxCell id="smnOxHgna7KKG46n1vhN-100" value="1" style="edgeLabel;html=1;align=center;verticalAlign=middle;resizable=0;points=[];" parent="smnOxHgna7KKG46n1vhN-97" vertex="1" connectable="0">
          <mxGeometry x="0.8486" y="1" relative="1" as="geometry">
            <mxPoint x="7" y="3" as="offset" />
          </mxGeometry>
        </mxCell>
        <mxCell id="smnOxHgna7KKG46n1vhN-103" value="0..*" style="edgeLabel;html=1;align=center;verticalAlign=middle;resizable=0;points=[];" parent="smnOxHgna7KKG46n1vhN-97" vertex="1" connectable="0">
          <mxGeometry x="-0.88" y="-1" relative="1" as="geometry">
            <mxPoint x="12" y="-9" as="offset" />
          </mxGeometry>
        </mxCell>
        <mxCell id="smnOxHgna7KKG46n1vhN-107" style="edgeStyle=orthogonalEdgeStyle;rounded=0;orthogonalLoop=1;jettySize=auto;html=1;endArrow=none;endFill=0;" parent="WIyWlLk6GJQsqaUBKTNV-1" source="smnOxHgna7KKG46n1vhN-8" target="smnOxHgna7KKG46n1vhN-4" edge="1">
          <mxGeometry relative="1" as="geometry">
            <mxPoint x="348" y="477" as="sourcePoint" />
            <mxPoint x="204" y="477" as="targetPoint" />
            <Array as="points">
              <mxPoint x="274" y="497" />
              <mxPoint x="274" y="497" />
            </Array>
          </mxGeometry>
        </mxCell>
        <mxCell id="smnOxHgna7KKG46n1vhN-108" value="&amp;lt;&amp;lt;interface&amp;gt;&amp;gt; IUser" style="swimlane;fontStyle=1;align=center;verticalAlign=top;childLayout=stackLayout;horizontal=1;startSize=26;horizontalStack=0;resizeParent=1;resizeParentMax=0;resizeLast=0;collapsible=1;marginBottom=0;whiteSpace=wrap;html=1;" parent="WIyWlLk6GJQsqaUBKTNV-1" vertex="1">
          <mxGeometry x="136" y="10" width="276" height="110" as="geometry" />
        </mxCell>
        <mxCell id="smnOxHgna7KKG46n1vhN-110" value="" style="line;strokeWidth=1;fillColor=none;align=left;verticalAlign=middle;spacingTop=-1;spacingLeft=3;spacingRight=3;rotatable=0;labelPosition=right;points=[];portConstraint=eastwest;strokeColor=inherit;" parent="smnOxHgna7KKG46n1vhN-108" vertex="1">
          <mxGeometry y="26" width="276" height="84" as="geometry" />
        </mxCell>
        <mxCell id="smnOxHgna7KKG46n1vhN-116" style="edgeStyle=orthogonalEdgeStyle;rounded=0;orthogonalLoop=1;jettySize=auto;html=1;dashed=1;endArrow=block;endFill=0;endSize=12;" parent="WIyWlLk6GJQsqaUBKTNV-1" source="smnOxHgna7KKG46n1vhN-0" target="smnOxHgna7KKG46n1vhN-108" edge="1">
          <mxGeometry relative="1" as="geometry" />
        </mxCell>
      </root>
    </mxGraphModel>
  </diagram>
</mxfile>
